<svg width="40" height="42" viewBox="0 0 40 42" fill="none" xmlns="http://www.w3.org/2000/svg">
<path d="M3.2 22V5.8H7.42C8.11333 5.8 8.76667 5.85333 9.38 5.96C10.0067 6.06667 10.56 6.27333 11.04 6.58C11.52 6.87333 11.8933 7.3 12.16 7.86C12.44 8.40667 12.58 9.13333 12.58 10.04C12.58 10.6933 12.48 11.2467 12.28 11.7C12.0933 12.14 11.82 12.4933 11.46 12.76C11.1133 13.0267 10.6933 13.2067 10.2 13.3C10.8267 13.38 11.3533 13.5867 11.78 13.92C12.2067 14.24 12.5267 14.6733 12.74 15.22C12.9667 15.7667 13.08 16.4267 13.08 17.2C13.08 18.04 12.9667 18.7667 12.74 19.38C12.5267 19.98 12.2133 20.4733 11.8 20.86C11.3867 21.2467 10.8733 21.5333 10.26 21.72C9.66 21.9067 8.96667 22 8.18 22H3.2ZM6.78 19.5H7.54C8.32667 19.5 8.86667 19.3 9.16 18.9C9.46667 18.5 9.62 17.9133 9.62 17.14C9.62 16.5267 9.55333 16.04 9.42 15.68C9.28667 15.32 9.06667 15.06 8.76 14.9C8.45333 14.7267 8.04 14.64 7.52 14.64H6.78V19.5ZM6.78 12.28H7.48C8.02667 12.28 8.44 12.2 8.72 12.04C9 11.8667 9.18667 11.62 9.28 11.3C9.38667 10.98 9.44 10.5933 9.44 10.14C9.44 9.71333 9.36 9.36 9.2 9.08C9.05333 8.78667 8.82667 8.56667 8.52 8.42C8.22667 8.27333 7.85333 8.2 7.4 8.2H6.78V12.28ZM14.5578 22V5.8H19.0178C20.1111 5.8 21.0578 5.92 21.8578 6.16C22.6578 6.4 23.2778 6.83333 23.7178 7.46C24.1711 8.07333 24.3978 8.94667 24.3978 10.08C24.3978 10.7467 24.3445 11.34 24.2378 11.86C24.1311 12.38 23.9311 12.8333 23.6378 13.22C23.3578 13.5933 22.9511 13.9067 22.4178 14.16L24.6378 22H20.9378L19.1578 14.74H18.1378V22H14.5578ZM18.1378 12.68H19.1378C19.6445 12.68 20.0378 12.5933 20.3178 12.42C20.5978 12.2333 20.7911 11.9733 20.8978 11.64C21.0178 11.2933 21.0778 10.88 21.0778 10.4C21.0778 9.70667 20.9511 9.16667 20.6978 8.78C20.4445 8.39333 19.9778 8.2 19.2978 8.2H18.1378V12.68ZM2.42 40L5.48 23.8H9.56L12.58 40H9.28L8.74 36.58H6.36L5.8 40H2.42ZM6.68 34.44H8.4L7.54 28.12L6.68 34.44ZM14.7641 40L12.8041 23.8H15.8441L16.8041 33.24L18.0241 23.82H20.4041L21.6841 33.18L22.6641 23.8H25.6641L23.7241 40H20.6041L19.2241 30.22L17.9241 40H14.7641Z" fill="#3375F1"/>
<path d="M31.0942 31.2146L29.0897 5.5409H35.9986L33.4824 31.2146H31.0942ZM28.9618 40V33.5176H35.5295V40H28.9618Z" fill="#3375F1"/>
</svg>
